<svg width="49" height="55" viewBox="0 0 49 55" fill="none" xmlns="http://www.w3.org/2000/svg">
<path d="M20.5514 1.49508C22.8324 -0.498365 26.1676 -0.498365 28.4486 1.49511L46.8236 17.554C48.2035 18.7601 49 20.5358 49 22.4067V50.0628C49 52.7895 46.8671 55 44.2361 55H34.7083C32.0773 55 29.9444 52.7895 29.9444 50.0628V34.5459C29.9444 34.1565 29.6398 33.8406 29.2639 33.8406H19.7361C19.3602 33.8406 19.0555 34.1565 19.0555 34.5459V50.0628C19.0555 52.7895 16.9227 55 14.2917 55H4.76389C2.13286 55 0 52.7895 0 50.0628V22.4067C0 20.5358 0.796386 18.7601 2.17647 17.554L20.5514 1.49508ZM25.8162 4.73025C25.0559 4.06576 23.9441 4.06576 23.1838 4.73025L4.80883 20.7892C4.3488 21.1912 4.08333 21.7831 4.08333 22.4067V50.0628C4.08333 50.4524 4.38803 50.7681 4.76389 50.7681H14.2917C14.6675 50.7681 14.9722 50.4524 14.9722 50.0628V34.5459C14.9722 31.8191 17.1051 29.6087 19.7361 29.6087H29.2639C31.8949 29.6087 34.0278 31.8191 34.0278 34.5459V50.0628C34.0278 50.4524 34.3324 50.7681 34.7083 50.7681H44.2361C44.6121 50.7681 44.9167 50.4524 44.9167 50.0628V22.4067C44.9167 21.7831 44.6513 21.1912 44.1912 20.7892L25.8162 4.73025Z" fill="#212121"/>
</svg>
